<svg xmlns="http://www.w3.org/2000/svg" viewBox="0 0 768 576" role="img" aria-labelledby="title desc">
  <title id="title">Playing-card box with its tray open</title>
  <desc id="desc">A graphite cardstock sleeve and teal tray holding a deck of cards.</desc>
  <defs>
    <pattern id="grid" width="24" height="24" patternUnits="userSpaceOnUse">
      <path d="M24 0H0V24" fill="none" stroke="#315f63" stroke-opacity=".08"/>
    </pattern>
    <filter id="shadow" x="-20%" y="-20%" width="140%" height="150%">
      <feDropShadow dx="0" dy="14" stdDeviation="12" flood-color="#20201d" flood-opacity=".16"/>
    </filter>
  </defs>
  <rect width="768" height="576" fill="#f4f0e6"/>
  <rect width="768" height="576" fill="url(#grid)"/>
  <g filter="url(#shadow)" stroke="#20201d" stroke-linejoin="round" stroke-width="8">
    <path d="m245 118 264 66-2 270-264-66z" fill="#3c3b37"/>
    <path d="m245 118 92-58 264 66-92 58z" fill="#fbf8f1"/>
    <path d="m509 184 92-58-2 270-92 58z" fill="#d9d2c5"/>
    <path d="m151 248 254 64 1 190-254-64z" fill="#315f63"/>
    <path d="m151 248 92-56 253 63-91 57z" fill="#dce8e6"/>
    <path d="m405 312 91-57 1 190-91 57z" fill="#23494c"/>
    <g stroke-width="5">
      <path d="m204 233 212 53 54-34-212-53z" fill="#fffdf8"/>
      <path d="m225 218 14-9 212 53-15 9z" fill="#f6dfdc"/>
      <path d="m257 207 14-8 212 52-14 9z" fill="#fffdf8"/>
    </g>
  </g>
  <path d="M233 447 406 490" fill="none" stroke="#f4f0e6" stroke-dasharray="14 12" stroke-width="5"/>
  <circle cx="557" cy="289" r="16" fill="#f4f0e6" stroke="#20201d" stroke-width="6"/>
</svg>
