<svg xmlns="http://www.w3.org/2000/svg" viewBox="0 0 768 576" role="img" aria-labelledby="title desc">
  <title id="title">Pop-up flower card</title>
  <desc id="desc">An open cream card with a pink five-petal flower rising at the fold.</desc>
  <defs>
    <pattern id="grid" width="24" height="24" patternUnits="userSpaceOnUse">
      <path d="M24 0H0V24" fill="none" stroke="#315f63" stroke-opacity=".08"/>
    </pattern>
    <filter id="shadow" x="-20%" y="-20%" width="140%" height="150%">
      <feDropShadow dx="0" dy="14" stdDeviation="12" flood-color="#20201d" flood-opacity=".14"/>
    </filter>
  </defs>
  <rect width="768" height="576" fill="#f4f0e6"/>
  <rect width="768" height="576" fill="url(#grid)"/>
  <g filter="url(#shadow)" stroke="#20201d" stroke-linejoin="round" stroke-width="8">
    <path d="m82 373 302-173 302 173-302 154z" fill="#fffdf8"/>
    <path d="m82 373 302-173v327z" fill="#fbf8f1"/>
    <path d="M384 200v327" fill="none" stroke="#315f63" stroke-dasharray="16 12" stroke-width="6"/>
    <path d="m339 389 45-31 45 31-45 72z" fill="#315f63"/>
    <path d="M384 361V232" fill="none" stroke="#315f63" stroke-width="14"/>
    <g fill="#cf6972">
      <path d="M384 244c-54-30-65-83-27-107 36 16 50 59 27 107z"/>
      <path d="M384 244c28-55 81-68 106-31-14 38-56 53-106 31z"/>
      <path d="M384 244c56 26 70 78 34 105-39-13-55-54-34-105z"/>
      <path d="M384 244c-24 57-76 73-105 38 11-39 52-58 105-38z"/>
      <path d="M384 244c-9-61 27-101 69-87 12 39-13 76-69 87z"/>
    </g>
    <circle cx="384" cy="244" r="31" fill="#e7b851"/>
  </g>
  <path d="m289 420 95 41 95-41" fill="none" stroke="#f4f0e6" stroke-width="5"/>
</svg>
